<?xml version="1.0" encoding="UTF-8"?>
<svg width="298px" height="98px" viewBox="0 0 298 98" version="1.1" xmlns="http://www.w3.org/2000/svg" xmlns:xlink="http://www.w3.org/1999/xlink">
    <!-- Generator: Sketch 46.1 (44463) - http://www.bohemiancoding.com/sketch -->
    <title>logo</title>
    <desc>Created with Sketch.</desc>
    <defs></defs>
    <g id="Page-1" stroke="none" stroke-width="1" fill="none" fill-rule="evenodd">
        <g id="logo" transform="translate(0.000000, -1.000000)" fill-rule="nonzero" fill="#FFC90D">
            <g id="Group">
                <path d="M1.91221374,2.70175 L1.91221374,14.8814318 L20.729771,14.8814318 L20.729771,65.751 L33.7534351,65.751 L33.7534351,14.8814318 L52.4862595,14.8814318 L52.4862595,2.70175 L1.91221374,2.70175 Z M54.7122137,2.70175 L54.7122137,65.751 L67.7381679,65.751 L67.7381679,2.70175 L54.7122137,2.70175 Z M74.2351145,2.26331818 L74.2351145,65.751 L86.6931298,65.751 L86.6931298,29.0742273 L121.674046,66.1894318 L125.507634,66.1894318 L125.507634,2.70175 L113.003817,2.70175 L113.003817,38.5475682 L78.9412214,2.26331818 L74.2351145,2.26331818 Z M140.019847,2.70175 L125.819084,2.70175 L148.037405,43.834 L148.037405,65.751 L160.971756,65.751 L160.971756,43.1338864 L183.100763,2.70175 L169.557252,2.70175 L154.658015,29.9028864 L140.019847,2.70175 Z M183.542748,2.70175 L183.542748,65.751 L196.353435,65.751 L196.353435,48.50525 L201.01374,48.50525 L201.01374,48.50525 C210.422901,48.50525 217.653435,46.5479924 222.705344,42.6334773 L222.705344,42.6334773 L222.705344,42.6334773 C227.758779,38.7174318 230.285496,33.1356515 230.285496,25.8881364 L230.285496,25.8881364 L230.285496,25.8881364 C230.285496,17.7652879 227.50458,11.8697955 221.942748,8.20165909 L221.942748,8.20165909 L221.942748,8.20165909 C216.382443,4.53505303 208.128244,2.70175 197.180153,2.70175 L197.180153,2.70175 L183.542748,2.70175 L183.542748,2.70175 Z M200.837405,36.9774773 L196.353435,36.9774773 L196.353435,14.7965 L200.837405,14.7965 L200.837405,14.7965 C206.849618,14.7965 211.10458,15.7644167 213.60229,17.70025 L213.60229,17.70025 L213.60229,17.70025 C216.1,19.634553 217.348855,22.3638485 217.348855,25.8881364 L217.348855,25.8881364 L217.348855,25.8881364 C217.348855,29.4093636 216.1,32.1378939 213.60229,34.0737273 L213.60229,34.0737273 L213.60229,34.0737273 C211.10458,36.0095606 206.849618,36.9774773 200.837405,36.9774773 L200.837405,36.9774773 Z M235.694656,1.91670455 L231.164885,65.751 L243.361832,65.751 L245.496183,33.7477727 L262.353435,62.69575 L265.055725,62.69575 L281.825954,33.7477727 L284.049618,65.751 L297.070992,65.751 L292.543511,1.91670455 L287.967939,1.91670455 L264.141985,42.5232955 L240.226718,1.91670455 L235.694656,1.91670455 Z" id="Shape"></path>
            </g>
            <g id="Group" transform="translate(0.000000, 86.462121)">
                <polygon id="Shape" points="0 0 297.910305 0 297.910305 0 297.910305 0 297.910305 11.9363636 297.910305 11.9363636 297.910305 11.9363636 0 11.9363636 0 11.9363636 0 11.9363636 0 0"></polygon>
            </g>
        </g>
    </g>
</svg>