<svg id="al93k4as9h1z" version="1.1" xmlns="http://www.w3.org/2000/svg" xmlns:xlink="http://www.w3.org/1999/xlink" width="130.08749999999998" height="48.06666666666667" viewBox="0 0 130.08749999999998 48.06666666666667" style="" ><svg fill="rgb(255, 201, 13)" x="0" y="0" ><path d="M0.835 1.177L0.835 6.483 9.052 6.483 9.052 28.644 14.739 28.644 14.739 6.483 22.919 6.483 22.919 1.177 0.835 1.177ZM23.891 1.177L23.891 28.644 29.579 28.644 29.579 1.177 23.891 1.177ZM32.416 0.986L32.416 28.644 37.856 28.644 37.856 12.666 53.131 28.835 54.805 28.835 54.805 1.177 49.345 1.177 49.345 16.793 34.471 0.986 32.416 0.986ZM61.142 1.177L54.941 1.177 64.643 19.096 64.643 28.644 70.291 28.644 70.291 18.791 79.954 1.177 74.04 1.177 67.534 13.027 61.142 1.177ZM80.147 1.177L80.147 28.644 85.741 28.644 85.741 21.131 87.776 21.131 87.776 21.131Q93.939 21.131 97.248 18.573L97.248 18.573 97.248 18.573Q100.558 16.014 100.558 11.278L100.558 11.278 100.558 11.278Q100.558 5.97 96.915 3.573L96.915 3.573 96.915 3.573Q93.273 1.177 86.102 1.177L86.102 1.177 80.147 1.177M87.699 16.109L85.741 16.109 85.741 6.446 87.699 6.446 87.699 6.446Q91.637 6.446 93.273 7.711L93.273 7.711 93.273 7.711Q94.909 8.975 94.909 11.278L94.909 11.278 94.909 11.278Q94.909 13.579 93.273 14.844L93.273 14.844 93.273 14.844Q91.637 16.109 87.699 16.109L87.699 16.109ZM102.92 0.835L100.942 28.644 106.268 28.644 107.2 14.702 114.561 27.313 115.741 27.313 123.064 14.702 124.035 28.644 129.721 28.644 127.744 0.835 125.746 0.835 115.342 18.525 104.899 0.835 102.92 0.835Z" ></path></svg><svg x="0" y="37.666666666666664" fill="#fff" ><path d="M0,0h130.08749999999998h0v0v5.2v0h0h-130.08749999999998h0v0v-5.2v0h0z" ></path></svg></svg>
